G04*
G04 #@! TF.GenerationSoftware,Altium Limited,Altium Designer,24.4.1 (13)*
G04*
G04 Layer_Physical_Order=2*
G04 Layer_Color=16711680*
%FSLAX44Y44*%
%MOMM*%
G71*
G04*
G04 #@! TF.SameCoordinates,D7BC8E67-6F73-4DDD-AC20-A832C9EBA58C*
G04*
G04*
G04 #@! TF.FilePolarity,Positive*
G04*
G01*
G75*
%ADD10C,0.2540*%
%ADD19C,2.0000*%
%ADD20C,1.5400*%
%ADD21R,1.5400X1.5400*%
%ADD26C,1.5240*%
%ADD27C,1.6510*%
%ADD28R,1.5240X1.5240*%
%ADD29O,1.2700X2.5400*%
%ADD30R,1.2700X2.5400*%
%ADD31C,1.2700*%
D10*
X942700Y760000D02*
X975000Y792300D01*
Y805000D01*
X916030Y760000D02*
X950000Y793970D01*
Y805000D01*
X900000Y1045000D02*
X916190Y1061190D01*
X924900Y1178900D02*
X978900D01*
X980000Y1180000D01*
X923800Y1177800D02*
X924900Y1178900D01*
X985000Y1220000D02*
X992939Y1212061D01*
Y1200750D02*
Y1212061D01*
X915000Y1220000D02*
X985000D01*
X905000Y1210000D02*
X915000Y1220000D01*
X905000Y1171200D02*
Y1210000D01*
Y1171200D02*
X923800Y1152400D01*
X975000Y805000D02*
X976350Y803650D01*
X950000Y805000D02*
X950515Y804485D01*
X850790Y1035790D02*
X1065810D01*
X1076200Y1025400D01*
X850000Y1035000D02*
X850790Y1035790D01*
X1058948Y1061052D02*
X1061052D01*
X1058810Y1061190D02*
X1058948Y1061052D01*
X1061052D02*
X1076200Y1076200D01*
X916190Y1061190D02*
X1058810D01*
X875000Y1045000D02*
X900000D01*
X1064600Y1090000D02*
X1076200Y1101600D01*
X910000Y1090000D02*
X1064600D01*
X890000Y1070000D02*
X910000Y1090000D01*
X923800Y1101600D02*
X936600D01*
X945000Y1110000D01*
Y1125000D01*
X1050000Y1230000D01*
X1159500D01*
X1174500Y1215000D01*
X760000Y875000D02*
X780000Y895000D01*
X760000Y825000D02*
Y875000D01*
Y825000D02*
X784950Y800050D01*
Y798850D02*
Y800050D01*
X875000Y910000D02*
X875001Y910000D01*
X875000Y818800D02*
Y910000D01*
X855050Y798850D02*
X875000Y818800D01*
X786410Y785040D02*
X797500Y773950D01*
X784950Y798850D02*
X786410Y797389D01*
Y785040D02*
Y797389D01*
X784950Y798850D02*
X855050D01*
X1076200Y923800D02*
X1095000Y905000D01*
X1076200Y923800D02*
Y923800D01*
X1095000Y871000D02*
X1201000Y765000D01*
X1095000Y871000D02*
Y905000D01*
D19*
X855050Y798850D02*
D03*
X784950D02*
D03*
X1143450Y789900D02*
D03*
X1213550D02*
D03*
D20*
X842500Y773950D02*
D03*
X1201000Y765000D02*
D03*
D21*
X797500Y773950D02*
D03*
X1156000Y765000D02*
D03*
D26*
X1125500Y1215000D02*
D03*
Y1135000D02*
D03*
X1174500D02*
D03*
X1174500Y1215000D02*
D03*
X923800Y873000D02*
D03*
Y898400D02*
D03*
Y949200D02*
D03*
Y974600D02*
D03*
Y1000000D02*
D03*
Y1025400D02*
D03*
Y1050800D02*
D03*
Y1076200D02*
D03*
Y1127000D02*
D03*
Y1152400D02*
D03*
Y1177800D02*
D03*
X1076200D02*
D03*
Y1152400D02*
D03*
Y1127000D02*
D03*
Y1101600D02*
D03*
Y873000D02*
D03*
Y847600D02*
D03*
X923800Y923800D02*
D03*
X1076200Y974600D02*
D03*
X923800Y1101600D02*
D03*
X1076200Y923800D02*
D03*
Y1076200D02*
D03*
Y1050800D02*
D03*
Y1025400D02*
D03*
Y1000000D02*
D03*
Y949200D02*
D03*
X923800Y822200D02*
D03*
Y847600D02*
D03*
X1076200Y898400D02*
D03*
X942700Y760000D02*
D03*
X916030D02*
D03*
X825500Y1210000D02*
D03*
Y1130000D02*
D03*
X874500D02*
D03*
Y1210000D02*
D03*
D27*
X1076200Y1203200D02*
D03*
X923800D02*
D03*
Y796800D02*
D03*
X1076200D02*
D03*
D28*
Y822200D02*
D03*
D29*
X853000Y910000D02*
D03*
X831000D02*
D03*
X809000D02*
D03*
D30*
X875001D02*
D03*
D31*
X975000Y805000D02*
D03*
X992939Y1200750D02*
D03*
X950000Y805000D02*
D03*
X980000Y1180000D02*
D03*
X850000Y1035000D02*
D03*
X875000Y1045000D02*
D03*
X890000Y1070000D02*
D03*
X780000Y895000D02*
D03*
M02*
