%TF.GenerationSoftware,Altium Limited,Altium Designer,24.4.1 (13)*%
G04 Layer_Physical_Order=2*
G04 Layer_Color=16711680*
%FSLAX45Y45*%
%MOMM*%
%TF.SameCoordinates,E812156F-5FB4-45FE-B866-EF37BABFEDD0*%
%TF.FilePolarity,Positive*%
%TF.FileFunction,Copper,L2,Bot,Signal*%
%TF.Part,Single*%
G01*
G75*
%TA.AperFunction,Conductor*%
%ADD11C,0.25400*%
%TA.AperFunction,ComponentPad*%
%ADD12C,1.52400*%
%ADD13C,1.65100*%
%ADD14R,1.52400X1.52400*%
%ADD15C,2.00000*%
%ADD16C,1.54000*%
%ADD17R,1.54000X1.54000*%
%ADD18O,1.27000X2.54000*%
%ADD19R,1.27000X2.54000*%
%TA.AperFunction,ViaPad*%
%ADD20C,1.27000*%
D11*
X9426998Y7599998D02*
X9750000Y7923000D01*
Y8050000D01*
X9160298Y7599998D02*
X9500000Y7939700D01*
Y8050000D01*
X9000000Y10450000D02*
X9161900Y10611900D01*
X9249000Y11789000D02*
X9789000D01*
X9800000Y11800000D01*
X9238000Y11778000D02*
X9249000Y11789000D01*
X9850000Y12200000D02*
X9929388Y12120612D01*
Y12007500D02*
Y12120612D01*
X9150000Y12200000D02*
X9850000D01*
X9050000Y12100000D02*
X9150000Y12200000D01*
X9050000Y11712001D02*
Y12100000D01*
Y11712001D02*
X9238000Y11524000D01*
X9750000Y8050000D02*
X9763499Y8036501D01*
X9500000Y8050000D02*
X9505149Y8044851D01*
X8507900Y10357900D02*
X10658100D01*
X10762000Y10254000D01*
X8500000Y10350000D02*
X8507900Y10357900D01*
X10589479Y10610521D02*
X10610521D01*
X10588099Y10611900D02*
X10589479Y10610521D01*
X10610521D02*
X10762000Y10762000D01*
X9161900Y10611900D02*
X10588099D01*
X8750000Y10450000D02*
X9000000D01*
X10646000Y10900000D02*
X10762000Y11016000D01*
X9100000Y10900000D02*
X10646000D01*
X8900000Y10700000D02*
X9100000Y10900000D01*
X9238000Y11016000D02*
X9366000D01*
X9450000Y11100000D01*
Y11250000D01*
X10500000Y12300000D01*
X11595002D01*
X11745003Y12149999D01*
X7600000Y8750000D02*
X7800000Y8950000D01*
X7600000Y8250000D02*
Y8750000D01*
Y8250000D02*
X7849498Y8000502D01*
Y7988498D02*
Y8000502D01*
X8750000Y9099997D02*
X8750005Y9100002D01*
X8750000Y8188001D02*
Y9099997D01*
X8550498Y7988498D02*
X8750000Y8188001D01*
X7864103Y7850398D02*
X7975000Y7739502D01*
X7849498Y7988498D02*
X7864103Y7973893D01*
Y7850398D02*
Y7973893D01*
X7849498Y7988498D02*
X8550498D01*
X10762000Y9238000D02*
X10950000Y9050000D01*
X10762000Y9238000D02*
Y9238000D01*
X10950000Y8709999D02*
X12009997Y7650002D01*
X10950000Y8709999D02*
Y9050000D01*
D12*
X11255002Y12149999D02*
D03*
Y11350000D02*
D03*
X11744998D02*
D03*
X11745003Y12149999D02*
D03*
X9238000Y8730000D02*
D03*
Y8984000D02*
D03*
Y9492000D02*
D03*
Y9746000D02*
D03*
Y10000000D02*
D03*
Y10254000D02*
D03*
Y10508000D02*
D03*
Y10762000D02*
D03*
Y11270000D02*
D03*
Y11524000D02*
D03*
Y11778000D02*
D03*
X10762000D02*
D03*
Y11524000D02*
D03*
Y11270000D02*
D03*
Y11016000D02*
D03*
Y8730000D02*
D03*
Y8476000D02*
D03*
X9238000Y9238000D02*
D03*
X10762000Y9746000D02*
D03*
X9238000Y11016000D02*
D03*
X10762000Y9238000D02*
D03*
Y10762000D02*
D03*
Y10508000D02*
D03*
Y10254000D02*
D03*
Y10000000D02*
D03*
Y9492000D02*
D03*
X9238000Y8222000D02*
D03*
Y8476000D02*
D03*
X10762000Y8984000D02*
D03*
X9426998Y7599998D02*
D03*
X9160298D02*
D03*
X8254998Y12100001D02*
D03*
Y11299998D02*
D03*
X8745000D02*
D03*
Y12100001D02*
D03*
D13*
X10762000Y12032000D02*
D03*
X9238000D02*
D03*
Y7968000D02*
D03*
X10762000D02*
D03*
D14*
Y8222000D02*
D03*
D15*
X8550498Y7988498D02*
D03*
X7849498D02*
D03*
X11434499Y7898999D02*
D03*
X12135498D02*
D03*
D16*
X8424996Y7739502D02*
D03*
X12009997Y7650002D02*
D03*
D17*
X7975000Y7739502D02*
D03*
X11559995Y7650002D02*
D03*
D18*
X8530001Y9100002D02*
D03*
X8310001D02*
D03*
X8090002D02*
D03*
D19*
X8750005D02*
D03*
D20*
X9750000Y8050000D02*
D03*
X9929388Y12007500D02*
D03*
X9500000Y8050000D02*
D03*
X9800000Y11800000D02*
D03*
X8500000Y10350000D02*
D03*
X8750000Y10450000D02*
D03*
X8900000Y10700000D02*
D03*
X7800000Y8950000D02*
D03*
%TF.MD5,3468bae10188b0a6b0bfeb06519c6c9a*%
M02*
