G04*
G04 #@! TF.GenerationSoftware,Altium Limited,Altium Designer,24.4.1 (13)*
G04*
G04 Layer_Color=65535*
%FSLAX44Y44*%
%MOMM*%
G71*
G04*
G04 #@! TF.SameCoordinates,D7BC8E67-6F73-4DDD-AC20-A832C9EBA58C*
G04*
G04*
G04 #@! TF.FilePolarity,Positive*
G04*
G01*
G75*
%ADD10C,0.2540*%
%ADD11C,0.2000*%
%ADD12C,0.2500*%
%ADD13C,0.1270*%
G36*
X876606Y890097D02*
X875000D01*
Y895000D01*
X876606D01*
Y890097D01*
D02*
G37*
D10*
X1165050Y1175000D02*
G03*
X1165050Y1175000I-15050J0D01*
G01*
X865050Y1170000D02*
G03*
X865050Y1170000I-15050J0D01*
G01*
X1240000Y855000D02*
G03*
X1240000Y855000I-20000J0D01*
G01*
X800000Y855000D02*
G03*
X800000Y855000I-20000J0D01*
G01*
X800000Y1225000D02*
G03*
X800000Y1225000I-20000J0D01*
G01*
X1240000Y1225000D02*
G03*
X1240000Y1225000I-20000J0D01*
G01*
X1116500Y1141500D02*
X1183500D01*
X1116500Y1208500D02*
X1183500D01*
Y1141500D02*
Y1208500D01*
X1116500Y1141500D02*
Y1208500D01*
X816500Y1136500D02*
X883500D01*
X816500Y1203500D02*
X883500D01*
Y1136500D02*
Y1203500D01*
X816500Y1136500D02*
Y1203500D01*
X1144922Y1222539D02*
X1143652Y1223809D01*
X1141113D01*
X1139843Y1222539D01*
Y1221270D01*
X1141113Y1220000D01*
X1143652D01*
X1144922Y1218730D01*
Y1217461D01*
X1143652Y1216191D01*
X1141113D01*
X1139843Y1217461D01*
X1147461Y1223809D02*
Y1216191D01*
X1150000Y1218730D01*
X1152539Y1216191D01*
Y1223809D01*
X1160157Y1216191D02*
X1155078D01*
X1160157Y1221270D01*
Y1222539D01*
X1158887Y1223809D01*
X1156348D01*
X1155078Y1222539D01*
X754922Y1093809D02*
Y1087461D01*
X756191Y1086191D01*
X758730D01*
X760000Y1087461D01*
Y1093809D01*
X762539Y1086191D02*
X765078D01*
X763809D01*
Y1093809D01*
X762539Y1092539D01*
X816827Y937459D02*
X815558Y938728D01*
X813019D01*
X811749Y937459D01*
Y932381D01*
X813019Y931111D01*
X815558D01*
X816827Y932381D01*
Y934920D01*
X814288D01*
X819367Y931111D02*
Y938728D01*
X824445Y931111D01*
Y938728D01*
X826984D02*
Y931111D01*
X830793D01*
X832063Y932381D01*
Y937459D01*
X830793Y938728D01*
X826984D01*
X811749Y969208D02*
Y964130D01*
X814288Y961591D01*
X816828Y964130D01*
Y969208D01*
X824445Y967939D02*
X823176Y969208D01*
X820636D01*
X819367Y967939D01*
Y962860D01*
X820636Y961591D01*
X823176D01*
X824445Y962860D01*
X832063Y967939D02*
X830793Y969208D01*
X828254D01*
X826984Y967939D01*
Y962860D01*
X828254Y961591D01*
X830793D01*
X832063Y962860D01*
X810479Y1006038D02*
Y1000960D01*
X813018Y998421D01*
X815558Y1000960D01*
Y1006038D01*
X818097D02*
X823175Y998421D01*
Y1006038D02*
X818097Y998421D01*
X809209Y1036518D02*
Y1031440D01*
X811749Y1028901D01*
X814288Y1031440D01*
Y1036518D01*
X816827D02*
Y1035249D01*
X819366Y1032709D01*
X821905Y1035249D01*
Y1036518D01*
X819366Y1032709D02*
Y1028901D01*
X814288Y1068268D02*
X813018Y1069538D01*
X810479D01*
X809210Y1068268D01*
Y1066999D01*
X810479Y1065729D01*
X813018D01*
X814288Y1064460D01*
Y1063190D01*
X813018Y1061920D01*
X810479D01*
X809210Y1063190D01*
X816827Y1069538D02*
Y1061920D01*
X819366Y1064460D01*
X821905Y1061920D01*
Y1069538D01*
X918652Y1228809D02*
Y1222461D01*
X919922Y1221191D01*
X922461D01*
X923730Y1222461D01*
Y1228809D01*
X926270Y1227539D02*
X927539Y1228809D01*
X930078D01*
X931348Y1227539D01*
Y1222461D01*
X930078Y1221191D01*
X927539D01*
X926270Y1222461D01*
Y1227539D01*
X791191Y827539D02*
X789922Y828809D01*
X787383D01*
X786113Y827539D01*
Y826270D01*
X787383Y825000D01*
X789922D01*
X791191Y823730D01*
Y822461D01*
X789922Y821191D01*
X787383D01*
X786113Y822461D01*
X793730Y828809D02*
Y821191D01*
X796270Y823730D01*
X798809Y821191D01*
Y828809D01*
X801348Y821191D02*
X803887D01*
X802617D01*
Y828809D01*
X801348Y827539D01*
X1199922Y822539D02*
X1198652Y823809D01*
X1196113D01*
X1194843Y822539D01*
Y821270D01*
X1196113Y820000D01*
X1198652D01*
X1199922Y818730D01*
Y817461D01*
X1198652Y816191D01*
X1196113D01*
X1194843Y817461D01*
X1202461Y823809D02*
Y816191D01*
X1205000Y818730D01*
X1207539Y816191D01*
Y823809D01*
X1210078Y822539D02*
X1211348Y823809D01*
X1213887D01*
X1215157Y822539D01*
Y817461D01*
X1213887Y816191D01*
X1211348D01*
X1210078Y817461D01*
Y822539D01*
X844922Y1217539D02*
X843652Y1218809D01*
X841113D01*
X839843Y1217539D01*
Y1216270D01*
X841113Y1215000D01*
X843652D01*
X844922Y1213730D01*
Y1212461D01*
X843652Y1211191D01*
X841113D01*
X839843Y1212461D01*
X847461Y1218809D02*
Y1211191D01*
X850000Y1213730D01*
X852539Y1211191D01*
Y1218809D01*
X855078Y1217539D02*
X856348Y1218809D01*
X858887D01*
X860157Y1217539D01*
Y1216270D01*
X858887Y1215000D01*
X857618D01*
X858887D01*
X860157Y1213730D01*
Y1212461D01*
X858887Y1211191D01*
X856348D01*
X855078Y1212461D01*
X952540Y765157D02*
X957618D01*
X955079D01*
Y757540D01*
X960157Y765157D02*
X965236Y757540D01*
Y765157D02*
X960157Y757540D01*
X892540D02*
Y765157D01*
X896349D01*
X897618Y763888D01*
Y761349D01*
X896349Y760079D01*
X892540D01*
X895079D02*
X897618Y757540D01*
X900157Y765157D02*
X905236Y757540D01*
Y765157D02*
X900157Y757540D01*
X855948Y890950D02*
X848330D01*
X855948D02*
Y887685D01*
X855586Y886597D01*
X855223Y886234D01*
X854497Y885871D01*
X853772D01*
X853046Y886234D01*
X852683Y886597D01*
X852321Y887685D01*
Y890950D02*
Y887685D01*
X851958Y886597D01*
X851595Y886234D01*
X850870Y885871D01*
X849781D01*
X849056Y886234D01*
X848693Y886597D01*
X848330Y887685D01*
Y890950D01*
X831274Y885508D02*
X832000Y885871D01*
X832726Y886597D01*
X833088Y887322D01*
Y888773D01*
X832726Y889499D01*
X832000Y890224D01*
X831274Y890587D01*
X830186Y890950D01*
X828372D01*
X827284Y890587D01*
X826558Y890224D01*
X825833Y889499D01*
X825470Y888773D01*
Y887322D01*
X825833Y886597D01*
X826558Y885871D01*
X827284Y885508D01*
X828372D01*
Y887322D02*
Y885508D01*
X812768Y890950D02*
X805150D01*
X812768D02*
Y887685D01*
X812406Y886597D01*
X812043Y886234D01*
X811317Y885871D01*
X810592D01*
X809866Y886234D01*
X809503Y886597D01*
X809141Y887685D01*
Y890950D01*
Y888410D02*
X805150Y885871D01*
X1182618Y938888D02*
X1181349Y940157D01*
X1178810D01*
X1177540Y938888D01*
Y937618D01*
X1178810Y936349D01*
X1181349D01*
X1182618Y935079D01*
Y933810D01*
X1181349Y932540D01*
X1178810D01*
X1177540Y933810D01*
X1185157Y940157D02*
Y932540D01*
X1187697Y935079D01*
X1190236Y932540D01*
Y940157D01*
X1177540Y975157D02*
Y970079D01*
X1180079Y967540D01*
X1182618Y970079D01*
Y975157D01*
X1185157D02*
Y973888D01*
X1187697Y971349D01*
X1190236Y973888D01*
Y975157D01*
X1187697Y971349D02*
Y967540D01*
X1177540Y1005157D02*
Y1000079D01*
X1180079Y997540D01*
X1182618Y1000079D01*
Y1005157D01*
X1185157D02*
X1190236Y997540D01*
Y1005157D02*
X1185157Y997540D01*
X1172540Y1040157D02*
Y1035079D01*
X1175079Y1032540D01*
X1177618Y1035079D01*
Y1040157D01*
X1185236Y1038888D02*
X1183966Y1040157D01*
X1181427D01*
X1180157Y1038888D01*
Y1033810D01*
X1181427Y1032540D01*
X1183966D01*
X1185236Y1033810D01*
X1192853Y1038888D02*
X1191584Y1040157D01*
X1189045D01*
X1187775Y1038888D01*
Y1033810D01*
X1189045Y1032540D01*
X1191584D01*
X1192853Y1033810D01*
X1177618Y1068888D02*
X1176349Y1070157D01*
X1173810D01*
X1172540Y1068888D01*
Y1063810D01*
X1173810Y1062540D01*
X1176349D01*
X1177618Y1063810D01*
Y1066349D01*
X1175079D01*
X1180157Y1062540D02*
Y1070157D01*
X1185236Y1062540D01*
Y1070157D01*
X1187775D02*
Y1062540D01*
X1191584D01*
X1192853Y1063810D01*
Y1068888D01*
X1191584Y1070157D01*
X1187775D01*
X884922Y913809D02*
Y906191D01*
X890000D01*
X892539D02*
X895078D01*
X893809D01*
Y913809D01*
X892539Y912539D01*
X1228652Y1093809D02*
Y1087461D01*
X1229922Y1086191D01*
X1232461D01*
X1233730Y1087461D01*
Y1093809D01*
X1241348Y1086191D02*
X1236270D01*
X1241348Y1091270D01*
Y1092539D01*
X1240078Y1093809D01*
X1237539D01*
X1236270Y1092539D01*
D11*
X1096000Y822200D02*
G03*
X1096000Y822200I-1000J0D01*
G01*
X782950Y744750D02*
Y774700D01*
X857050Y744750D02*
Y774700D01*
X782950Y812600D02*
Y817050D01*
X857050Y812600D02*
Y817050D01*
X782950D02*
X857050D01*
X1141450Y808100D02*
X1215550D01*
Y803650D02*
Y808100D01*
X1141450Y803650D02*
Y808100D01*
X1215550Y735800D02*
Y765750D01*
X1141450Y735800D02*
Y765750D01*
D12*
X772200Y773950D02*
G03*
X772200Y773950I-1250J0D01*
G01*
X1130700Y765000D02*
G03*
X1130700Y765000I-1250J0D01*
G01*
D13*
X911100Y784100D02*
X1088900D01*
X911100D02*
Y1215900D01*
X1088900D01*
Y784100D02*
Y1215900D01*
M02*
