M48
;Layer_Color=9474304
;FILE_FORMAT=4:4
METRIC,LZ
;TYPE=PLATED
T01F00S00C0.7112
T02F00S00C0.7620
T03F00S00C0.9900
T04F00S00C1.0000
T05F00S00C1.0160
T06F00S00C1.3000
T07F00S00C2.2000
;TYPE=NON_PLATED
T08F00S00C1.6510
%
T01
X0078Y00895
X0085Y01035
X00875Y01045
X0089Y0107
X0098Y0118
X00975Y00805
X0095
X00992939Y0120075
T02
X0091603Y0076
X009427
X008745Y0113
X008255
X011255Y01135
X011745
X011745Y01215
X011255
X008745Y0121
X008255
T03
X01201Y00765
X01156
X008425Y0077395
X007975
T04
X00809Y0091
X00831
X00853
X00875001
T05
X009238Y008222
Y008476
Y00873
Y008984
Y009238
Y009492
Y009746
Y01
Y010254
Y010508
Y010762
Y011016
Y01127
Y011524
Y011778
X010762
Y011524
Y01127
Y011016
Y010762
Y010508
Y010254
Y01
Y009746
Y009492
Y009238
Y008984
Y00873
Y008476
Y008222
T06
X0121355Y007899
X0114345
X0078495Y0079885
X0085505
T07
X0078Y00855
X0122Y00855
X0122Y01225
X0078Y01225
T08
X009238Y007968
X010762
Y012032
X009238
M30
