%TF.GenerationSoftware,Altium Limited,Altium Designer,24.4.1 (13)*%
G04 Layer_Physical_Order=1*
G04 Layer_Color=255*
%FSLAX45Y45*%
%MOMM*%
%TF.SameCoordinates,E812156F-5FB4-45FE-B866-EF37BABFEDD0*%
%TF.FilePolarity,Positive*%
%TF.FileFunction,Copper,L1,Top,Signal*%
%TF.Part,Single*%
G01*
G75*
%TA.AperFunction,SMDPad,CuDef*%
%ADD10R,5.08000X2.54000*%
%TA.AperFunction,Conductor*%
%ADD11C,0.25400*%
%TA.AperFunction,ComponentPad*%
%ADD12C,1.52400*%
%ADD13C,1.65100*%
%ADD14R,1.52400X1.52400*%
%ADD15C,2.00000*%
%ADD16C,1.54000*%
%ADD17R,1.54000X1.54000*%
%ADD18O,1.27000X2.54000*%
%ADD19R,1.27000X2.54000*%
%TA.AperFunction,ViaPad*%
%ADD20C,1.27000*%
D10*
X7800000Y9717502D02*
D03*
Y9400002D02*
D03*
Y10047702D02*
D03*
Y10365202D02*
D03*
Y10682702D02*
D03*
X12200001Y9717502D02*
D03*
Y10035002D02*
D03*
Y10682702D02*
D03*
Y9400002D02*
D03*
Y10365202D02*
D03*
D11*
X9750000Y8050000D02*
Y8950000D01*
X9929388Y9129388D01*
Y12007500D01*
X9500000Y8050000D02*
Y8950000D01*
X8422797Y7741701D02*
Y8122798D01*
X9800000Y9250000D02*
Y11800000D01*
X9500000Y8950000D02*
X9800000Y9250000D01*
X7815201Y10350000D02*
X8450000D01*
X7800000Y10365202D02*
X7815201Y10350000D01*
X8750000D02*
Y10450000D01*
X8447702Y10047702D02*
X8750000Y10350000D01*
X7800000Y10047702D02*
X8447702D01*
X9650000Y9250000D02*
Y12200000D01*
X9550000Y9300000D02*
Y12200000D01*
X9488000Y9238000D02*
X9550000Y9300000D01*
X9500000Y12250000D02*
X9550000Y12200000D01*
X9500000Y12350000D02*
X9650000Y12200000D01*
X9400000Y9000000D02*
X9650000Y9250000D01*
X10500000Y9754001D02*
Y11050000D01*
X8900000Y10200000D02*
Y10700000D01*
X8417502Y9717502D02*
X8900000Y10200000D01*
X7800000Y9717502D02*
X8417502D01*
X10762000Y10508000D02*
X10770001Y10500000D01*
X11000000D01*
X11450000Y10050000D01*
X12185003D01*
X12200001Y10035002D01*
X10762000Y10000000D02*
X10762001Y10000000D01*
X11150000D01*
X11432499Y9717502D02*
X12200001D01*
X11150000Y10000000D02*
X11432499Y9717502D01*
X10762000Y9746000D02*
X10766000Y9750000D01*
X11150000D01*
X11499999Y9400002D02*
X12200001D01*
X11150000Y9750000D02*
X11499999Y9400002D01*
X10762000Y11016000D02*
X11134000D01*
X11784798Y10365202D01*
X12200001D01*
X11744998Y11350000D02*
X12200001Y10894997D01*
Y10682702D02*
Y10894997D01*
X11745001Y11350003D02*
Y12149996D01*
X11745003Y12149999D01*
X11744998Y11350000D02*
X11745001Y11350003D01*
X10500000Y9754001D02*
X10762000Y9492000D01*
X11071102Y11166100D02*
X11255002Y11350000D01*
X10616100Y11166100D02*
X11071102D01*
X10500000Y11050000D02*
X10616100Y11166100D01*
X11255002Y11350000D02*
Y12149999D01*
X9150000Y10500000D02*
X9230000D01*
X9238000Y10508000D01*
X9050000Y10400000D02*
X9150000Y10500000D01*
X9050000Y10123500D02*
Y10400000D01*
X8090002Y9100002D02*
Y9163502D01*
X9050000Y10123500D01*
X9238000Y10000000D02*
X9238000Y10000000D01*
X9150000Y10000000D02*
X9238000D01*
X8310001Y9100002D02*
Y9160001D01*
X9150000Y10000000D01*
X8530001Y9163502D02*
X9112499Y9746000D01*
X9238000D01*
X8530001Y9100002D02*
Y9163502D01*
X9238000Y8476000D02*
X9400000Y8638000D01*
Y9000000D01*
X8350000Y12350000D02*
X9500000D01*
X8041300Y12041300D02*
X8350000Y12350000D01*
X8041300Y10797002D02*
Y12041300D01*
X7927000Y10682702D02*
X8041300Y10797002D01*
X7800000Y10682702D02*
X7927000D01*
X9044997Y11000000D02*
X9222000D01*
X9238000Y11016000D01*
X8745000Y11299998D02*
X9044997Y11000000D01*
X8745000Y11299998D02*
Y12100001D01*
X8254998Y11299998D02*
Y12100001D01*
X9238000Y9238000D02*
X9488000D01*
X8254998Y12100001D02*
X8404997Y12250000D01*
X9500000D01*
X7800000Y8950000D02*
Y9400001D01*
X7800000Y9400002D02*
X7800000Y9400001D01*
X8522000Y8222000D02*
X9238000D01*
X8422797Y8122798D02*
X8522000Y8222000D01*
X8422797Y7741701D02*
X8424996Y7739502D01*
X8550498Y7988498D02*
X8738996Y7800000D01*
X10950000D01*
X11048999Y7898999D02*
X11434499D01*
X10950000Y7800000D02*
X11048999Y7898999D01*
X11434499D02*
X12135498D01*
X11434499D02*
X11449099Y7884399D01*
Y7760899D02*
X11559995Y7650002D01*
X11449099Y7760899D02*
Y7884399D01*
D12*
X11255002Y12149999D02*
D03*
Y11350000D02*
D03*
X11744998D02*
D03*
X11745003Y12149999D02*
D03*
X9238000Y8730000D02*
D03*
Y8984000D02*
D03*
Y9492000D02*
D03*
Y9746000D02*
D03*
Y10000000D02*
D03*
Y10254000D02*
D03*
Y10508000D02*
D03*
Y10762000D02*
D03*
Y11270000D02*
D03*
Y11524000D02*
D03*
Y11778000D02*
D03*
X10762000D02*
D03*
Y11524000D02*
D03*
Y11270000D02*
D03*
Y11016000D02*
D03*
Y8730000D02*
D03*
Y8476000D02*
D03*
X9238000Y9238000D02*
D03*
X10762000Y9746000D02*
D03*
X9238000Y11016000D02*
D03*
X10762000Y9238000D02*
D03*
Y10762000D02*
D03*
Y10508000D02*
D03*
Y10254000D02*
D03*
Y10000000D02*
D03*
Y9492000D02*
D03*
X9238000Y8222000D02*
D03*
Y8476000D02*
D03*
X10762000Y8984000D02*
D03*
X9426998Y7599998D02*
D03*
X9160298D02*
D03*
X8254998Y12100001D02*
D03*
Y11299998D02*
D03*
X8745000D02*
D03*
Y12100001D02*
D03*
D13*
X10762000Y12032000D02*
D03*
X9238000D02*
D03*
Y7968000D02*
D03*
X10762000D02*
D03*
D14*
Y8222000D02*
D03*
D15*
X8550498Y7988498D02*
D03*
X7849498D02*
D03*
X11434499Y7898999D02*
D03*
X12135498D02*
D03*
D16*
X8424996Y7739502D02*
D03*
X12009997Y7650002D02*
D03*
D17*
X7975000Y7739502D02*
D03*
X11559995Y7650002D02*
D03*
D18*
X8530001Y9100002D02*
D03*
X8310001D02*
D03*
X8090002D02*
D03*
D19*
X8750005D02*
D03*
D20*
X9750000Y8050000D02*
D03*
X9929388Y12007500D02*
D03*
X9500000Y8050000D02*
D03*
X9800000Y11800000D02*
D03*
X8500000Y10350000D02*
D03*
X8750000Y10450000D02*
D03*
X8900000Y10700000D02*
D03*
X7800000Y8950000D02*
D03*
%TF.MD5,eae30479b87de453f378e179c8c75462*%
M02*
