G04*
G04 #@! TF.GenerationSoftware,Altium Limited,Altium Designer,24.4.1 (13)*
G04*
G04 Layer_Color=16711935*
%FSLAX44Y44*%
%MOMM*%
G71*
G04*
G04 #@! TF.SameCoordinates,D7BC8E67-6F73-4DDD-AC20-A832C9EBA58C*
G04*
G04*
G04 #@! TF.FilePolarity,Negative*
G04*
G01*
G75*
%ADD16C,1.7272*%
%ADD17C,1.8542*%
%ADD18R,1.7272X1.7272*%
%ADD19C,2.0000*%
%ADD20C,1.5400*%
%ADD21R,1.5400X1.5400*%
%ADD22C,0.2032*%
%ADD23O,1.4732X2.7432*%
%ADD24R,1.4732X2.7432*%
%ADD25C,1.4732*%
D16*
X1125500Y1215000D02*
D03*
Y1135000D02*
D03*
X1174500D02*
D03*
X1174500Y1215000D02*
D03*
X923800Y873000D02*
D03*
Y898400D02*
D03*
Y949200D02*
D03*
Y974600D02*
D03*
Y1000000D02*
D03*
Y1025400D02*
D03*
Y1050800D02*
D03*
Y1076200D02*
D03*
Y1127000D02*
D03*
Y1152400D02*
D03*
Y1177800D02*
D03*
X1076200D02*
D03*
Y1152400D02*
D03*
Y1127000D02*
D03*
Y1101600D02*
D03*
Y873000D02*
D03*
Y847600D02*
D03*
X923800Y923800D02*
D03*
X1076200Y974600D02*
D03*
X923800Y1101600D02*
D03*
X1076200Y923800D02*
D03*
Y1076200D02*
D03*
Y1050800D02*
D03*
Y1025400D02*
D03*
Y1000000D02*
D03*
Y949200D02*
D03*
X923800Y822200D02*
D03*
Y847600D02*
D03*
X1076200Y898400D02*
D03*
X942700Y760000D02*
D03*
X916030D02*
D03*
X825500Y1210000D02*
D03*
Y1130000D02*
D03*
X874500D02*
D03*
Y1210000D02*
D03*
D17*
X1076200Y1203200D02*
D03*
X923800D02*
D03*
Y796800D02*
D03*
X1076200D02*
D03*
D18*
Y822200D02*
D03*
D19*
X855050Y798850D02*
D03*
X784950D02*
D03*
X1143450Y789900D02*
D03*
X1213550D02*
D03*
D20*
X842500Y773950D02*
D03*
X1201000Y765000D02*
D03*
D21*
X797500Y773950D02*
D03*
X1156000Y765000D02*
D03*
D22*
X780000Y1225000D02*
D03*
X1220000Y855000D02*
D03*
X780000Y855000D02*
D03*
X1220000Y1225000D02*
D03*
D23*
X853000Y910000D02*
D03*
X831000D02*
D03*
X809000D02*
D03*
D24*
X875001D02*
D03*
D25*
X975000Y805000D02*
D03*
X992939Y1200750D02*
D03*
X950000Y805000D02*
D03*
X980000Y1180000D02*
D03*
X850000Y1035000D02*
D03*
X875000Y1045000D02*
D03*
X890000Y1070000D02*
D03*
X780000Y895000D02*
D03*
M02*
