%TF.GenerationSoftware,Altium Limited,Altium Designer,24.4.1 (13)*%
G04 Layer_Color=0*
%FSLAX45Y45*%
%MOMM*%
%TF.SameCoordinates,E812156F-5FB4-45FE-B866-EF37BABFEDD0*%
%TF.FilePolarity,Positive*%
%TF.FileFunction,Plated,1,2,PTH,Drill*%
%TF.Part,Single*%
G01*
G75*
%TA.AperFunction,ComponentDrill*%
%ADD35C,0.76200*%
%ADD36C,1.01600*%
%ADD37C,1.30000*%
%ADD38C,0.99000*%
%ADD39C,2.20000*%
%ADD40C,1.00000*%
%TA.AperFunction,ViaDrill,NotFilled*%
%ADD41C,0.71120*%
D35*
X11255002Y12149999D02*
D03*
Y11350000D02*
D03*
X11744998D02*
D03*
X11745003Y12149999D02*
D03*
X9426998Y7599998D02*
D03*
X9160298D02*
D03*
X8254998Y12100001D02*
D03*
Y11299998D02*
D03*
X8745000D02*
D03*
Y12100001D02*
D03*
D36*
X9238000Y8730000D02*
D03*
Y8984000D02*
D03*
Y9492000D02*
D03*
Y9746000D02*
D03*
Y10000000D02*
D03*
Y10254000D02*
D03*
Y10508000D02*
D03*
Y10762000D02*
D03*
Y11270000D02*
D03*
Y11524000D02*
D03*
Y11778000D02*
D03*
X10762000D02*
D03*
Y11524000D02*
D03*
Y11270000D02*
D03*
Y11016000D02*
D03*
Y8730000D02*
D03*
Y8476000D02*
D03*
Y8222000D02*
D03*
X9238000Y9238000D02*
D03*
X10762000Y9746000D02*
D03*
X9238000Y11016000D02*
D03*
X10762000Y9238000D02*
D03*
Y10762000D02*
D03*
Y10508000D02*
D03*
Y10254000D02*
D03*
Y10000000D02*
D03*
Y9492000D02*
D03*
X9238000Y8222000D02*
D03*
Y8476000D02*
D03*
X10762000Y8984000D02*
D03*
D37*
X8550498Y7988498D02*
D03*
X7849498D02*
D03*
X11434499Y7898999D02*
D03*
X12135498D02*
D03*
D38*
X8424996Y7739502D02*
D03*
X7975000D02*
D03*
X11559995Y7650002D02*
D03*
X12009997D02*
D03*
D39*
X7800000Y12250000D02*
D03*
X12200001Y8550001D02*
D03*
X7800000Y8550000D02*
D03*
X12200000Y12250001D02*
D03*
D40*
X8530001Y9100002D02*
D03*
X8750005D02*
D03*
X8310001D02*
D03*
X8090002D02*
D03*
D41*
X9750000Y8050000D02*
D03*
X9929388Y12007500D02*
D03*
X9500000Y8050000D02*
D03*
X9800000Y11800000D02*
D03*
X8500000Y10350000D02*
D03*
X8750000Y10450000D02*
D03*
X8900000Y10700000D02*
D03*
X7800000Y8950000D02*
D03*
%TF.MD5,59725301a5f8d65e820a76782852c6a3*%
M02*
