%TF.GenerationSoftware,Altium Limited,Altium Designer,24.4.1 (13)*%
G04 Layer_Color=65535*
%FSLAX45Y45*%
%MOMM*%
%TF.SameCoordinates,E812156F-5FB4-45FE-B866-EF37BABFEDD0*%
%TF.FilePolarity,Positive*%
%TF.FileFunction,Legend,Top*%
%TF.Part,Single*%
G01*
G75*
%TA.AperFunction,NonConductor*%
%ADD21C,0.25400*%
%ADD22C,0.20000*%
%ADD23C,0.25000*%
%ADD24C,0.12700*%
G36*
X8766061Y8900972D02*
X8750000D01*
Y8950000D01*
X8766061D01*
Y8900972D01*
D02*
G37*
D21*
X11650500Y11750000D02*
G03*
X11650500Y11750000I-150500J0D01*
G01*
X8650500Y11700000D02*
G03*
X8650500Y11700000I-150500J0D01*
G01*
X12400001Y8550001D02*
G03*
X12400001Y8550001I-200000J0D01*
G01*
X8000000Y8550000D02*
G03*
X8000000Y8550000I-200000J0D01*
G01*
X8000000Y12250000D02*
G03*
X8000000Y12250000I-200000J0D01*
G01*
X12400000Y12250001D02*
G03*
X12400000Y12250001I-200000J0D01*
G01*
X11164999Y11414999D02*
X11835000D01*
X11164999Y12085000D02*
X11835000D01*
Y11414999D02*
Y12085000D01*
X11164999Y11414999D02*
Y12085000D01*
X8165001Y11365001D02*
X8835002D01*
X8165001Y12035003D02*
X8835002D01*
Y11365001D02*
Y12035003D01*
X8165001Y11365001D02*
Y12035003D01*
X11449217Y12225392D02*
X11436521Y12238088D01*
X11411129D01*
X11398433Y12225392D01*
Y12212696D01*
X11411129Y12200000D01*
X11436521D01*
X11449217Y12187304D01*
Y12174608D01*
X11436521Y12161912D01*
X11411129D01*
X11398433Y12174608D01*
X11474608Y12238088D02*
Y12161912D01*
X11500000Y12187304D01*
X11525392Y12161912D01*
Y12238088D01*
X11601567Y12161912D02*
X11550784D01*
X11601567Y12212696D01*
Y12225392D01*
X11588872Y12238088D01*
X11563480D01*
X11550784Y12225392D01*
X7549217Y10938088D02*
Y10874608D01*
X7561912Y10861912D01*
X7587304D01*
X7600000Y10874608D01*
Y10938088D01*
X7625392Y10861912D02*
X7650784D01*
X7638088D01*
Y10938088D01*
X7625392Y10925392D01*
X8168274Y9374589D02*
X8155579Y9387285D01*
X8130187D01*
X8117491Y9374589D01*
Y9323805D01*
X8130187Y9311109D01*
X8155579D01*
X8168274Y9323805D01*
Y9349197D01*
X8142883D01*
X8193666Y9311109D02*
Y9387285D01*
X8244450Y9311109D01*
Y9387285D01*
X8269841D02*
Y9311109D01*
X8307929D01*
X8320625Y9323805D01*
Y9374589D01*
X8307929Y9387285D01*
X8269841D01*
X8117492Y9692083D02*
Y9641299D01*
X8142884Y9615908D01*
X8168276Y9641299D01*
Y9692083D01*
X8244451Y9679387D02*
X8231755Y9692083D01*
X8206364D01*
X8193668Y9679387D01*
Y9628604D01*
X8206364Y9615908D01*
X8231755D01*
X8244451Y9628604D01*
X8320626Y9679387D02*
X8307931Y9692083D01*
X8282539D01*
X8269843Y9679387D01*
Y9628604D01*
X8282539Y9615908D01*
X8307931D01*
X8320626Y9628604D01*
X8104793Y10060382D02*
Y10009599D01*
X8130185Y9984207D01*
X8155577Y10009599D01*
Y10060382D01*
X8180968D02*
X8231752Y9984207D01*
Y10060382D02*
X8180968Y9984207D01*
X8092094Y10365181D02*
Y10314398D01*
X8117486Y10289006D01*
X8142877Y10314398D01*
Y10365181D01*
X8168269D02*
Y10352486D01*
X8193661Y10327094D01*
X8219053Y10352486D01*
Y10365181D01*
X8193661Y10327094D02*
Y10289006D01*
X8142879Y10682684D02*
X8130183Y10695380D01*
X8104791D01*
X8092095Y10682684D01*
Y10669988D01*
X8104791Y10657292D01*
X8130183D01*
X8142879Y10644596D01*
Y10631901D01*
X8130183Y10619205D01*
X8104791D01*
X8092095Y10631901D01*
X8168271Y10695380D02*
Y10619205D01*
X8193663Y10644596D01*
X8219054Y10619205D01*
Y10695380D01*
X9186521Y12288088D02*
Y12224608D01*
X9199217Y12211912D01*
X9224608D01*
X9237304Y12224608D01*
Y12288088D01*
X9262696Y12275392D02*
X9275392Y12288088D01*
X9300784D01*
X9313479Y12275392D01*
Y12224608D01*
X9300784Y12211912D01*
X9275392D01*
X9262696Y12224608D01*
Y12275392D01*
X7911912Y8275392D02*
X7899217Y8288088D01*
X7873825D01*
X7861129Y8275392D01*
Y8262696D01*
X7873825Y8250000D01*
X7899217D01*
X7911912Y8237304D01*
Y8224608D01*
X7899217Y8211912D01*
X7873825D01*
X7861129Y8224608D01*
X7937304Y8288088D02*
Y8211912D01*
X7962696Y8237304D01*
X7988088Y8211912D01*
Y8288088D01*
X8013480Y8211912D02*
X8038871D01*
X8026175D01*
Y8288088D01*
X8013480Y8275392D01*
X11999217Y8225392D02*
X11986521Y8238088D01*
X11961129D01*
X11948433Y8225392D01*
Y8212696D01*
X11961129Y8200000D01*
X11986521D01*
X11999217Y8187304D01*
Y8174608D01*
X11986521Y8161913D01*
X11961129D01*
X11948433Y8174608D01*
X12024608Y8238088D02*
Y8161913D01*
X12050000Y8187304D01*
X12075392Y8161913D01*
Y8238088D01*
X12100784Y8225392D02*
X12113480Y8238088D01*
X12138872D01*
X12151567Y8225392D01*
Y8174608D01*
X12138872Y8161913D01*
X12113480D01*
X12100784Y8174608D01*
Y8225392D01*
X8449217Y12175392D02*
X8436521Y12188088D01*
X8411129D01*
X8398433Y12175392D01*
Y12162696D01*
X8411129Y12150000D01*
X8436521D01*
X8449217Y12137304D01*
Y12124608D01*
X8436521Y12111913D01*
X8411129D01*
X8398433Y12124608D01*
X8474608Y12188088D02*
Y12111913D01*
X8500000Y12137304D01*
X8525392Y12111913D01*
Y12188088D01*
X8550784Y12175392D02*
X8563480Y12188088D01*
X8588872D01*
X8601567Y12175392D01*
Y12162696D01*
X8588872Y12150000D01*
X8576176D01*
X8588872D01*
X8601567Y12137304D01*
Y12124608D01*
X8588872Y12111913D01*
X8563480D01*
X8550784Y12124608D01*
X9525400Y7651575D02*
X9576184D01*
X9550792D01*
Y7575400D01*
X9601575Y7651575D02*
X9652359Y7575400D01*
Y7651575D02*
X9601575Y7575400D01*
X8925400D02*
Y7651575D01*
X8963488D01*
X8976183Y7638879D01*
Y7613488D01*
X8963488Y7600792D01*
X8925400D01*
X8950792D02*
X8976183Y7575400D01*
X9001575Y7651575D02*
X9052359Y7575400D01*
Y7651575D02*
X9001575Y7575400D01*
X8559484Y8909500D02*
X8483300D01*
X8559484D02*
Y8876850D01*
X8555856Y8865966D01*
X8552228Y8862339D01*
X8544973Y8858711D01*
X8537717D01*
X8530461Y8862339D01*
X8526834Y8865966D01*
X8523206Y8876850D01*
Y8909500D02*
Y8876850D01*
X8519578Y8865966D01*
X8515950Y8862339D01*
X8508695Y8858711D01*
X8497812D01*
X8490556Y8862339D01*
X8486928Y8865966D01*
X8483300Y8876850D01*
Y8909500D01*
X8312745Y8855083D02*
X8320001Y8858711D01*
X8327256Y8865966D01*
X8330884Y8873222D01*
Y8887733D01*
X8327256Y8894989D01*
X8320001Y8902244D01*
X8312745Y8905872D01*
X8301861Y8909500D01*
X8283723D01*
X8272839Y8905872D01*
X8265584Y8902244D01*
X8258328Y8894989D01*
X8254700Y8887733D01*
Y8873222D01*
X8258328Y8865966D01*
X8265584Y8858711D01*
X8272839Y8855083D01*
X8283723D01*
Y8873222D02*
Y8855083D01*
X8127684Y8909500D02*
X8051500D01*
X8127684D02*
Y8876850D01*
X8124056Y8865967D01*
X8120428Y8862339D01*
X8113172Y8858711D01*
X8105917D01*
X8098661Y8862339D01*
X8095034Y8865967D01*
X8091406Y8876850D01*
Y8909500D01*
Y8884105D02*
X8051500Y8858711D01*
X11826184Y9388879D02*
X11813488Y9401575D01*
X11788096D01*
X11775400Y9388879D01*
Y9376183D01*
X11788096Y9363488D01*
X11813488D01*
X11826184Y9350792D01*
Y9338096D01*
X11813488Y9325400D01*
X11788096D01*
X11775400Y9338096D01*
X11851575Y9401575D02*
Y9325400D01*
X11876967Y9350792D01*
X11902359Y9325400D01*
Y9401575D01*
X11775400Y9751575D02*
Y9700792D01*
X11800792Y9675400D01*
X11826184Y9700792D01*
Y9751575D01*
X11851575D02*
Y9738879D01*
X11876967Y9713488D01*
X11902359Y9738879D01*
Y9751575D01*
X11876967Y9713488D02*
Y9675400D01*
X11775400Y10051575D02*
Y10000792D01*
X11800792Y9975400D01*
X11826184Y10000792D01*
Y10051575D01*
X11851575D02*
X11902359Y9975400D01*
Y10051575D02*
X11851575Y9975400D01*
X11725400Y10401575D02*
Y10350792D01*
X11750792Y10325400D01*
X11776183Y10350792D01*
Y10401575D01*
X11852359Y10388879D02*
X11839663Y10401575D01*
X11814271D01*
X11801575Y10388879D01*
Y10338096D01*
X11814271Y10325400D01*
X11839663D01*
X11852359Y10338096D01*
X11928534Y10388879D02*
X11915838Y10401575D01*
X11890447D01*
X11877751Y10388879D01*
Y10338096D01*
X11890447Y10325400D01*
X11915838D01*
X11928534Y10338096D01*
X11776183Y10688879D02*
X11763488Y10701575D01*
X11738096D01*
X11725400Y10688879D01*
Y10638096D01*
X11738096Y10625400D01*
X11763488D01*
X11776183Y10638096D01*
Y10663488D01*
X11750792D01*
X11801575Y10625400D02*
Y10701575D01*
X11852359Y10625400D01*
Y10701575D01*
X11877751D02*
Y10625400D01*
X11915838D01*
X11928534Y10638096D01*
Y10688879D01*
X11915838Y10701575D01*
X11877751D01*
X8849216Y9138088D02*
Y9061913D01*
X8900000D01*
X8925392D02*
X8950784D01*
X8938088D01*
Y9138088D01*
X8925392Y9125392D01*
X12286521Y10938088D02*
Y10874608D01*
X12299216Y10861912D01*
X12324608D01*
X12337304Y10874608D01*
Y10938088D01*
X12413479Y10861912D02*
X12362696D01*
X12413479Y10912696D01*
Y10925392D01*
X12400784Y10938088D01*
X12375392D01*
X12362696Y10925392D01*
D22*
X10960000Y8222000D02*
G03*
X10960000Y8222000I-10000J0D01*
G01*
X7829498Y7447498D02*
Y7747000D01*
X8570497Y7447498D02*
Y7747000D01*
X7829498Y8125998D02*
Y8170499D01*
X8570497Y8125998D02*
Y8170499D01*
X7829498D02*
X8570497D01*
X11414499Y8081000D02*
X12155498D01*
Y8036499D02*
Y8081000D01*
X11414499Y8036499D02*
Y8081000D01*
X12155498Y7357999D02*
Y7657501D01*
X11414499Y7357999D02*
Y7657501D01*
D23*
X7721998Y7739500D02*
G03*
X7721998Y7739500I-12500J0D01*
G01*
X11306998Y7650000D02*
G03*
X11306998Y7650000I-12500J0D01*
G01*
D24*
X9111000Y7841000D02*
X10889000D01*
X9111000D02*
Y12159000D01*
X10889000D01*
Y7841000D02*
Y12159000D01*
%TF.MD5,43d1829d9e7168ab6503ffda18d1d8d1*%
M02*
